<?xml version="1.0" encoding="utf-8"?>
<!DOCTYPE svg PUBLIC "-//W3C//DTD SVG 20010904//EN" "http://www.w3.org/TR/2001/REC-SVG-20010904/DTD/svg10.dtd">
<svg version="1.0" xmlns="http://www.w3.org/2000/svg" width="512px" height="512px" viewBox="0 0 512 512" preserveAspectRatio="xMidYMid meet">
 <g fill="#ffffff">
  <path d="M252.2 501.3 c-0.7 -0.2 -12.3 -16.1 -25.9 -35.1 -26.9 -37.9 -76.1 -107 -137.4 -193.2 -21.8 -30.5 -49.6 -69.7 -61.9 -87 -12.4 -17.4 -22.8 -33 -23.3 -35 -1.3 -4.8 -0.2 -10.3 2.9 -14 l2.6 -3 22.3 0 22.4 0 7 9.7 7 9.8 -21 0.5 -20.9 0.5 12.8 18 c7.1 9.9 30.8 43.2 52.7 74 21.9 30.8 57.5 80.8 79 111 21.5 30.3 49.4 69.4 61.9 87 12.5 17.6 23.1 32 23.6 32 0.5 0 10 -12.8 21.1 -28.5 11.1 -15.7 37.9 -53.2 59.4 -83.5 21.5 -30.2 58.2 -81.8 81.5 -114.5 23.3 -32.7 48.1 -67.6 55.2 -77.5 l12.8 -18 -20.9 -0.5 -21 -0.5 7 -9.7 7 -9.8 22.4 0 22.3 0 2.6 3 c3.1 3.7 4.2 9.2 2.9 14 -0.5 2 -10.9 17.6 -23.3 35 -22.3 31.3 -65.6 92.2 -140.9 198 -21.7 30.5 -48.9 68.8 -60.4 85 -11.5 16.2 -21.8 30.3 -22.9 31.3 -1.9 1.6 -5.9 2.1 -8.6 1z"/>
  <path d="M251.2 380.3 c-1.6 -1.6 -9.4 -12 -17.4 -23.3 -14 -19.8 -50.7 -71.5 -123.3 -173.5 -96 -134.8 -106.5 -149.7 -107.1 -153 -0.8 -4.6 0.3 -9 3.3 -12.5 l2.5 -3 246.8 0 246.8 0 2.6 3 c2.9 3.5 4.1 8.5 3.1 12.9 -0.6 2.9 -16.3 25.2 -107 152.6 -72.7 102.1 -113.6 159.6 -126.5 177.8 -7.3 10.4 -14.3 19.5 -15.4 20.3 -3 2.1 -5.2 1.7 -8.4 -1.3z m28 -54.3 c12.4 -17.3 41.5 -58.3 64.8 -91 23.3 -32.7 61.2 -86 84.3 -118.5 23.1 -32.4 45.5 -63.9 49.8 -69.9 4.3 -6 7.6 -11.3 7.3 -11.8 -0.7 -1.1 -458.1 -1.1 -458.8 0 -0.3 0.5 4.1 7.4 9.8 15.3 5.6 7.9 28 39.4 49.8 69.9 104.8 147.3 120.9 169.9 144.2 202.7 13.8 19.4 25.4 35.2 25.8 35 0.3 -0.1 10.7 -14.4 23 -31.7z"/>
  <path d="M246.6 251.8 c-1.8 -1.8 -18.9 -24.9 -37.8 -51.3 -19 -26.4 -39.8 -55.4 -46.3 -64.5 -6.5 -9.1 -12.4 -16.9 -13 -17.5 -1.5 -1.2 -17.8 -24.2 -19.4 -27.2 -0.6 -1.2 -1.1 -4.2 -1.1 -6.6 0 -3.8 0.5 -4.9 3.1 -7.1 3.4 -2.9 3.8 -3 7.1 -1.7 2.8 1 16.2 16.6 17 19.6 0.6 2.3 14.9 22.5 65.5 92.6 19.3 26.7 35.5 49.5 36.2 50.6 0.6 1.2 1.1 4 1.1 6.3 0 3.3 -0.6 4.8 -2.9 7.1 -3.8 3.7 -5.3 3.7 -9.5 -0.3z"/>
 </g>
</svg>